<svg xmlns="http://www.w3.org/2000/svg" viewBox="0 0 55.48 59.95" fill="#fff"><path d="M52.35 12.17h-7a7.77 7.77 0 0 0 .45-8.11A7.75 7.75 0 0 0 35.34.94c-3.61 2-6.17 6.11-7.6 9-1.43-2.9-4-7.06-7.6-9a7.74 7.74 0 0 0-10 11.23h-7A3.14 3.14 0 0 0 0 15.3v9.38a3.14 3.14 0 0 0 3.13 3.14H4v26.1a6 6 0 0 0 6 6h35.48a6 6 0 0 0 6-6v-26.1h.84a3.14 3.14 0 0 0 3.13-3.14V15.3a3.14 3.14 0 0 0-3.1-3.13zM36.48 3.05A5.33 5.33 0 0 1 42 12.17H29.35C30.48 9.64 33 5 36.48 3.05zM11.75 5.21A5.35 5.35 0 0 1 19 3.05c3.52 1.91 6 6.59 7.13 9.12H13.49a5.33 5.33 0 0 1-1.74-6.96zm14.79 22.61v13.67H6.36V27.82zM6.36 53.92v-10h20.18v13.63H10a3.63 3.63 0 0 1-3.64-3.63zm39.12 3.63H28.94V43.89h20.17v10a3.62 3.62 0 0 1-3.63 3.66zm3.63-16.06H28.94V27.82h20.17zm4-16.81a.74.74 0 0 1-.73.74H3.13a.74.74 0 0 1-.73-.74V15.3a.75.75 0 0 1 .73-.73h49.22a.75.75 0 0 1 .73.73z"/></svg>