<svg xmlns="http://www.w3.org/2000/svg" viewBox="0 0 367.6 512"><path d="M79.59 0h2c3.57 1.86 5.71 5 7.54 8.42a82.68 82.68 0 0 1 6.92 18.18c1.12 4.27 3.43 6.31 7.78 7.07 12.27 2.12 21.22 9.12 27.46 19.75A140.06 140.06 0 0 1 141 74.24c7.5 19.44 13.23 39.49 20.22 59.1 3.33 9.36 3.47 9.24 13.48 9.34 11.89.11 11.06-1.86 11.24 11.33.06 4.18-1.26 6.29-5.67 6.07-1.37-.06-3.42-.69-3.94 1.14-.43 1.52 1.26 2.58 2.27 3.64 6.26 6.64 14.1 10.5 22.78 12.85 10 2.69 20.12 4.79 29.89 8.09 24.89 8.4 48 20.13 65.92 40 10.95 12.12 18.48 26.49 24.88 41.39 19.51 45.41 28.64 93.47 35.91 142 3.41 22.73 5.81 45.58 7.67 68.47.92 11.44 2.13 22.88 2 34.39h-175c-.62-2.44.39-4.61 1.21-6.76 3.56-9.26 10.87-14.08 20.1-16.22 3.64-.84 4.11-1.94 1.84-4.83a54.28 54.28 0 0 1-8.35-16.39c-8.58-25.37-11.89-51.84-16-78.11-3.16-20.06-7.88-39.46-18.26-57.16a114.7 114.7 0 0 0-29.39-33.63c-4.36-3.33-4.5-3.33-5.24 2.33-.5 3.78-.63 7.61-.87 11.43a491.52 491.52 0 0 0 .91 74.8c1.78 19.42 2.49 38.81.8 58.29a397.65 397.65 0 0 1-11.81 66.2h-70a28.56 28.56 0 0 1 22.27-23.44c6.74-1.32 13.27-.43 19.78 1.07 3.14.72 4.46.15 4.72-3.43a300.19 300.19 0 0 0-5-83.5c-6.59-31.8-12.8-63.67-16.09-96a94 94 0 0 0-12-37.09c-6.27-11.17-11.72-22.8-17.88-34.06-4.88-8.91-5.81-17.92-2.18-27.39 1.43-3.73 2.78-7.51 4.53-11.1 5-10.33 10.35-20.52 15.3-30.89 2.56-5.36 2-5.93-3.73-6-8.56-.19-8.56-.19-8.7-8.68V148c-.07-3.64 1.34-5.65 5.33-5.35 2.65.2 5.33 0 8 .05 3.64.07 4.68-1.52 3.79-5-3-12-14.59-21.9-27-23.41-11.76-1.44-23.25.23-34.72 2.27-3.41.61-5.28-.14-6.57-3.37C5.38 107.84 3 102.68.7 97.51c-1-2.15-1-4.05.49-6C17.88 69.8 36.06 49.77 60.9 37.07a7.93 7.93 0 0 0 4.66-5.94c1.58-7.5 3.42-14.94 6.66-21.95 1.7-3.68 3.66-7.12 7.37-9.18z"/></svg>