<svg xmlns="http://www.w3.org/2000/svg" viewBox="0 0 100.5 18.09"><path d="M1.22 16.58A6.82 6.82 0 0 1 0 12.22V5.88a6.8 6.8 0 0 1 1.21-4.39C2 .5 3.4 0 5.36 0s3.19.44 4 1.32a5.52 5.52 0 0 1 1.14 3.76V6.6H6.64V4.84a4.46 4.46 0 0 0-.22-1.56c-.15-.36-.5-.54-1.06-.54a1.08 1.08 0 0 0-1.1.57A3.84 3.84 0 0 0 4 4.91v8.27a3.61 3.61 0 0 0 .28 1.6 1.1 1.1 0 0 0 1.09.55 1 1 0 0 0 1-.55 4.44 4.44 0 0 0 .23-1.6v-1.85h3.9v1.52a5.8 5.8 0 0 1-1.17 3.86c-.78.92-2.11 1.38-4 1.38S2 17.58 1.22 16.58zM15.2.24h4.49L23 17.83h-3.62l-.59-3.72h-2.62l-.62 3.72h-3.73zm3.21 11.55l-.94-6.86-.95 6.86zm7.34-8.66h-2.69V.24h9.33v2.89h-2.67v14.7h-4zM39.53.24h6.93v1.82H42v5.82h3.6v1.74H42v6.45h4.5v1.76h-7zm8.96 0h1.7l5.07 11.68V.24h2.07v17.59h-1.59l-5.14-12v12h-2.11zm11.32 0h6.93v1.82H62.3v5.82h3.6v1.74h-3.6v6.45h4.48v1.76h-7zm8.96 0h3.59a5.93 5.93 0 0 1 4 1.1 4.47 4.47 0 0 1 1.27 3.57c0 2.26-.74 3.62-2.2 4.1l2.53 8.82h-2.4L73.2 9.57h-1.94v8.26h-2.49zm3.44 7.58a3.38 3.38 0 0 0 2.3-.63 3 3 0 0 0 .7-2.28A4.64 4.64 0 0 0 75 3.2a1.63 1.63 0 0 0-.86-.91A4.24 4.24 0 0 0 72.36 2h-1.1v5.82zm8.6 8.71a7.67 7.67 0 0 1-1.08-4.48V6.17a10.94 10.94 0 0 1 .43-3.36 3.79 3.79 0 0 1 1.48-2 5.11 5.11 0 0 1 2.88-.7 4.56 4.56 0 0 1 3.56 1.23 5.85 5.85 0 0 1 1.09 3.89v.65h-2.34v-.56a9.54 9.54 0 0 0-.15-1.94 1.66 1.66 0 0 0-.65-1A2.52 2.52 0 0 0 84.56 2a2.2 2.2 0 0 0-1.56.46 2.16 2.16 0 0 0-.65 1.25 11.58 11.58 0 0 0-.15 2.09v6.51a6.25 6.25 0 0 0 .5 2.9 2 2 0 0 0 1.91.88 2 2 0 0 0 1.9-1 6.65 6.65 0 0 0 .52-3.06v-1.17h-2.25V9.12h4.52v8.71h-1.56l-.25-2A3.14 3.14 0 0 1 84.32 18a4 4 0 0 1-3.51-1.47zm13.47-4.91L90.42.24h2.32l2.73 8.49L98.16.24h2.34l-3.84 11.38v6.21h-2.38z" fill="#111"/></svg>