<svg xmlns="http://www.w3.org/2000/svg" viewBox="0 0 54.16 23.18" fill="#63d1bb" preserveAspectRatio="none"><path d="M40.31 5.71A47.8 47.8 0 0 0 28 4.05a46.38 46.38 0 0 0-7.71.62L13.46 0H0l5.81 6.19h8.45A22 22 0 0 0 7.5 9.7v3.78A24.33 24.33 0 0 0 14.43 17H5.81L0 23.18h13.46l6.81-4.69a44 44 0 0 0 7.68.65 48.22 48.22 0 0 0 12.36-1.67 10.7 10.7 0 0 1-1.92-5.87 10.66 10.66 0 0 1 1.92-5.89zm3.42 1.04a7.87 7.87 0 0 0-2 4.84 7.79 7.79 0 0 0 2 4.84 48.43 48.43 0 0 0 10.42-4.84 48.38 48.38 0 0 0-10.42-4.84z"/></svg>