<svg xmlns="http://www.w3.org/2000/svg" viewBox="0 0 21.77 21.33"><path d="M21.77 12.15c0-2.4-.35-4.79-.31-7.14 0-.79-.08-1.53-.15-2.28a5.64 5.64 0 0 1-.15-1.06c-.26-.17-.22-.67-.46-.84A7.66 7.66 0 0 0 19 .61c-.66 0-1.26-.12-1.9-.16-1.94-.1-4-.07-6-.07A43.92 43.92 0 0 1 5.37 0h-2.2c-.1 0-.11.1-.23.08a8.57 8.57 0 0 0-1.6.3 2.8 2.8 0 0 1-.68.3c-.14.2-.51.15-.61.38s.19.45 0 .61v.91c.18.13 0 .58.08.84v1c0 1.28.13 2.4.08 3.72a39 39 0 0 1 .07 9.42 14.73 14.73 0 0 1 .46 1.74 7 7 0 0 0 .68 1.52 6.47 6.47 0 0 0 1.9.23 4.13 4.13 0 0 0 1.14.3c2.84-.21 5.49-.15 8.42-.22a35 35 0 0 0 8.28-.23c.19-.14.13-.53.23-.76-.06-.39.2-.45.22-.76.14-2.38.17-4.81.16-7.23zm-13-6.23a9.45 9.45 0 0 1 2.43-.3 10.57 10.57 0 0 1 1.9.45c.12.19-.24.55.15.69v.07c.06 0 .15 0 .16.08a1.9 1.9 0 0 1 1.06.38c.45 0 .53.47 1.14.38a2.13 2.13 0 0 0-.08.83 11.56 11.56 0 0 1 .3 4.25 2.06 2.06 0 0 0-.3.69c-.31.32-.48.78-.83 1.06a1 1 0 0 1-.46.53c-.12.22-.2.45-.46.53s-.57 0-.83-.07a3.43 3.43 0 0 0-1.21.6c-.82-.09-1.65-.17-2.43-.3a2 2 0 0 0-.84-.3 2 2 0 0 0-.83-.49c-.1-.13-.33-.12-.45-.23s-.23-.22-.46-.23c-.11-.41-.44-.61-.53-1.06a5.42 5.42 0 0 1-.45-1.21 13.09 13.09 0 0 1 .38-3.8c.34-.59.78-1.09 1.13-1.67.25 0 .37-.09.38-.3.31 0 .44-.07.69-.08s.26-.36.45-.5zM7.11 3.19A3.54 3.54 0 0 1 7 2.13c0-.29.28-.28.3-.54 0-.07-.09-.05-.15-.07.13-.15.7-.1.83 0 .14.53-.35.45-.53.68 0 .17.33 0 .46.08 0 .85-.06 1.49 0 2.2h-.42c0 .23.23.23.46.23-.06.28.09.36.07.6-.22.16-.71.05-1.06.08-.1-.59.24-1.39.15-2.2zm-.68-1.6c.09 0 .13 0 .15.08.18.25 0 .68-.07.91-.18-.18-.03-.68-.08-.99zm.15 1.83c-.13-.07-.17-.24-.15-.46.13.04.17.24.15.46zm0 1.36c-.06.14-.08 0-.07-.15s.08.05.07.15zM6.43 5c.18 0 .08.22.23.23 0 .19-.28.18-.38.07s.11-.18.15-.3zM4.08 3.79c0-.1 0-.21-.08-.22-.07-.74.13-1.42 0-2 .25-.15.77 0 1.14-.07v1.16a.49.49 0 0 1-.38.07c0 .28.32.13.38.31a9.25 9.25 0 0 0 .15 2.42c-.56 0-.9.11-1.44.08.1-.61 0-1.43.53-1.59-.01-.14-.26-.05-.3-.16zm-.53 0c-.21 0-.22-.53-.08-.6.33 0 .25.5.08.6zm-.16 1a3.25 3.25 0 0 0 .08-.68c.23 0 .26.76-.08.67zm.23-2.05c-.26.06-.27-.26-.15-.38s.27.26.15.37zm0-1.14c0 .16-.05.2-.07.31-.18 0-.09-.22-.23-.23.02-.11.19-.07.3-.09zm-.23 3.71c.15 0 .11.35-.07.23a.32.32 0 0 0 .07-.23zm-.68-3.72c0 .26-.44.32-.38 0zm-1 .08c0 .22-.32.18-.38.38-.2-.17.1-.47.39-.38zm-.45.76c.22-.21.45-.41.68-.61 0-.12.07-.13.08-.23h.23c.1.38-.26.3-.31.53s-.07.14-.07.23a4.44 4.44 0 0 1 .07 1c-.27 0-.27.28-.61.23.04-.44-.12-.69-.06-1.15zm.07 3.26V4.1c.2-.18.4-.36.61-.53.3.49.18 1.39.46 1.89a7 7 0 0 1-1.06.23zm18.23 11.09a20.1 20.1 0 0 1-.37 2.81c-2.89.12-6 0-8.89.15-.2 0-.27 0-.23-.23-.25 0-.25.25-.53.23.2-.34.44-.9.15-1.29-.79 0-.79.82-1.13 1.29-.69 0-1.14.13-1.83.07.18-.7.75-1 .91-1.74-.39-.55-1 .14-1.21.45-.2.48-.56.81-.76 1.29h-1c.24-.46.49-.92.76-1.36s.63-.74.69-1.37c-.16-.28-.42 0-.69 0-.12.18-.27.34-.38.53a9.27 9.27 0 0 0-.68 1.14c-.18.21-.33 0-.53.23-.39.27-.58.73-1 1-.17-.06 0-.36.15-.38.05-.18-.09-.55.08-.61a2.28 2.28 0 0 1 .38-.91c.12-.74.52-1.2.68-1.9-.56.1-.67.64-1 1a6.61 6.61 0 0 0-.69 1.29c-.17-.13 0-.58-.07-.84.12-.58.29-1.12.38-1.74A2.59 2.59 0 0 0 3 15a.71.71 0 0 0-.07-.76.53.53 0 0 0-.46.31c-.19 0-.19.5-.3.3-.05-2.59-.45-4.81-.46-7.44 0-.33-.18-.42-.22-.68 1.62 0 3.12.09 4.78.22a2.85 2.85 0 0 1-.27.41 2 2 0 0 0-.37.31A12.56 12.56 0 0 0 5 13.82a4.48 4.48 0 0 0 1 1.44c.91.48 1.64 1.15 2.51 1.67a14.15 14.15 0 0 0 5.54 0 4.55 4.55 0 0 0 .69-.38c1.36-1.24 2.75-2.46 3-4.86v-1.37a5 5 0 0 0-1.75-3.64c.33-.22 1.1 0 1.67.08h.68a7.78 7.78 0 0 1 1.45 0c.14.18.11.54.22.76-.06 1.68-.19 3.3-.15 5.08.1.46.13 1 .23 1.44a16 16 0 0 1-.53 2.74zm.38-11.16c-.64-.12-1.23-.29-1.89-.38.07-.34.79 0 1-.23.39-.22.3-.92.31-1.52a5.06 5.06 0 0 0 .07-1.06C19 1.48 17.63 2 16.53 2a6 6 0 0 0-.31 2.66c.17.49 1 .29 1.52.46-.14.33-.69 0-1 .07s-.71 0-1-.15c-2.29.08-4.29 0-6.53.15a17 17 0 0 0-.08-3.64h3.12c-.35.36-.92.5-1.29.83a3.22 3.22 0 0 0-1.14.91c.25.14.53-.24.76-.38s.48-.38.83-.45a5.72 5.72 0 0 1 1.67-.91 3.81 3.81 0 0 1 1 .07c1.28 0 2.45.13 3.79.08a13.05 13.05 0 0 1 2 .3 8.08 8.08 0 0 1 .3.91 25.93 25.93 0 0 1-.23 2.71zM14.1 1.9c.11 0 0-.09 0 0zm0 0a3.27 3.27 0 0 0-1.37.68 3.39 3.39 0 0 0 1.37-.68zm1.06.6c.11 0 0-.09 0 0zm-1.74.92a6 6 0 0 0 1.74-.92c-.44 0-.59.32-1 .38-.16.22-.59.26-.74.54zm-.69-.84c-.11 0 0 .09 0 0zm-.68.61c.11 0 0-.09 0 0zm-.05.07c.07 0 .07 0 .08-.07s-.08.03-.08.07zm-.07.08c.06 0 .07 0 .07-.08s-.1.03-.1.08zm-.87.66a2.1 2.1 0 0 0 .84-.61 2 2 0 0 0-.84.61zm2.28 1c.53 0 .75-.41 1.21-.53.29-.3.79-.38 1-.76-.56 0-.76.4-1.21.53-.34.23-.77.35-1 .69zm-2.28-1c-.31-.08 0 .22 0 0zm-.53.38s.11 0 .08-.08-.12-.01-.08.03zm2.81.6c-.11.05 0 .1 0 0zM12.2 6.76c-.22-.24-.68-.24-1-.38a5.13 5.13 0 0 0-1.74.23l-.91.45c-.27.16-.45.42-.76.53s-.35.51-.69.61c0 .22-.17.28-.3.38s-.09.31-.23.38 0 .29-.07.3a18.63 18.63 0 0 0 .68 4.18c.29.62 1 .84 1.44 1.29a6.59 6.59 0 0 0 2.13.53 3.21 3.21 0 0 1 .91-.08 5.05 5.05 0 0 0 2.81-1.44 1.56 1.56 0 0 1 .45-.68c-.25-.67.3-1.1.46-1.6a8.45 8.45 0 0 0-.61-3.41c-.25-.58-.92-.75-1.36-1.14-.06 0-.16 0-.16-.08a1.33 1.33 0 0 0-1.05-.07zm-3.42 4.32c-.11-.06-.11-.24-.15-.38.26-.07.12.24.15.38zm.08.31c0-.12.08 0 .08.07s-.08.01-.08-.07zm.46-2.05c0-.09.07-.05.07 0s-.07.04-.07 0zM11 7.21c-.21.26 0 .58.07.84-.31-.05-.58-.89-.07-.84zm.38 4s.05-.1.07-.08-.06.05-.08.03zm.74 2.79c0-.11.07 0 .16 0a.08.08 0 0 1-.16 0zm2.21-2.58c-.24-.05-.15.21-.38.16a1.63 1.63 0 0 1 .22-.46c.14.06.18.17.16.34zm-1.14-3.75a2.45 2.45 0 0 1 .6.38 2.31 2.31 0 0 0 .38.53 21.7 21.7 0 0 1 .16 2.35c-.26.1-.44.27-.69.38a4.35 4.35 0 0 1-1.89-.45l-.54-.76V9a4.54 4.54 0 0 0 .46-.6c.23-.13.51-.2.45-.61a.45.45 0 0 1-.07-.23c.16 0 .24.16.38.23.32.05.41-.17.76-.12z" fill="#231f20"/></svg>