<svg xmlns="http://www.w3.org/2000/svg" viewBox="0 0 34.37 34.37" fill="#63d1bb" preserveAspectRatio="none"><path d="M.29 14.07a17.11 17.11 0 0 0 0 6.3l4.12-3.21zM24.4 1.59A17.2 17.2 0 0 0 9.15 2l7.51 5.63zm9.5 11.58l-4.81 3.75 4.91 3.7a17.34 17.34 0 0 0-.1-7.45zM9.21 32.41a17.22 17.22 0 0 0 15.73.12l-8.1-6.06zm-1.3-17.98L1.68 9.77a17.18 17.18 0 0 0-.82 2.05l5.3 4zM18.59 25.1l8.34 6.24c.28-.19.55-.39.82-.6s.62-.5.92-.77l-8.33-6.23zm-7.18-13.39L4 6.16a19 19 0 0 0-1.27 1.72l6.93 5.19zm10.68 10.67l8.09 6.05a15 15 0 0 0 1.3-1.7L23.84 21zM14.91 9L7.2 3.2l-.58.43c-.39.31-.77.63-1.13 1l7.67 5.74zm10.68 10.65l7 5.22a17.15 17.15 0 0 0 .86-2l-6.08-4.55zm.86-16.94L.88 22.63a17.13 17.13 0 0 0 .84 2.06L28.24 4a16.07 16.07 0 0 0-1.79-1.29zm4.29 3.91c-.3-.38-.61-.75-.94-1.1l-27 21.05c.26.4.54.79.84 1.18l.43.53 27.1-21.1c-.17-.18-.28-.37-.43-.56zM32.3 9L5.55 29.84a18.44 18.44 0 0 0 1.71 1.38L33.22 11a17 17 0 0 0-.92-2z"/></svg>