<svg xmlns="http://www.w3.org/2000/svg" viewBox="0 0 32.67 32.49" fill="#63d1bb" preserveAspectRatio="none"><path d="M2.89 32.49H15.4V18.58H2.89zM31.08 8.87h-7.34a10.81 10.81 0 0 0 1.4-.87 5.06 5.06 0 0 0 2.42-4 3.87 3.87 0 0 0-1.36-2.9 4.61 4.61 0 0 0-3-1.12 6 6 0 0 0-3.32 1.07 10.62 10.62 0 0 0-3.42 4.07l-.12.23a11.9 11.9 0 0 0-1-1.79 9.74 9.74 0 0 0-2.49-2.51A6 6 0 0 0 9.46 0a4.59 4.59 0 0 0-3.15 1.3A4.31 4.31 0 0 0 4.9 4.43a4 4 0 0 0 .65 2.19 6.53 6.53 0 0 0 2.63 2.25H1.59A1.59 1.59 0 0 0 0 10.46v5.89h15.4V8.87h1.87v7.48h15.4v-5.89a1.59 1.59 0 0 0-1.59-1.59M8.71 6.53A3.63 3.63 0 0 1 7.5 5.39a1.75 1.75 0 0 1-.3-1A2.09 2.09 0 0 1 7.89 3a2.36 2.36 0 0 1 1.56-.7 3.68 3.68 0 0 1 2 .68 8.41 8.41 0 0 1 2.65 3.19 10.64 10.64 0 0 1 .9 2.09 14.9 14.9 0 0 1-6.29-1.73M19.25 4.9A7.36 7.36 0 0 1 21.14 3a3.69 3.69 0 0 1 2.05-.68 2.32 2.32 0 0 1 1.5.55A1.58 1.58 0 0 1 25.26 4c0 .51-.27 1.26-1.47 2.13a15.74 15.74 0 0 1-6.12 2.27 10.6 10.6 0 0 1 1.58-3.5m-2 27.59h12.53V18.58H17.27z"/></svg>