<svg xmlns="http://www.w3.org/2000/svg" viewBox="0 0 51.48 49.48" fill="#826550"><title>beard-admiral</title><path d="M50.88,0h-.24c-2.31,7.69-2.93,17.07-9.36,20.64-1.19-3.35-4.11-4.89-7.44-6.36-2.12-.93-4.55-2.56-6.6-2.64a2.18,2.18,0,0,0-1.5.32,2.18,2.18,0,0,0-1.5-.32c-2,.08-4.49,1.71-6.6,2.64-3.33,1.47-6.25,3-7.44,6.36C3.76,17.07,3.15,7.69.84,0H.6A14,14,0,0,0,0,2.4C0,4.32.54,23.86,1.92,30.84,3.16,37.13,8,41.67,12.72,44.64c3.29,2.07,8.51,4.84,13,4.84s9.73-2.77,13-4.84c4.72-3,9.56-7.51,10.8-13.8,1.38-7,1.92-26.52,1.92-28.44A14,14,0,0,0,50.88,0ZM37,28.06c-.25,1.55-1.66,3.38-3.36,3.48-3,.16-4.51-4.42-7.86-4.38s-4.88,4.54-7.86,4.38c-1.7-.1-3.12-1.93-3.36-3.48a7.55,7.55,0,0,1,1.68-5.64c1.1-1.07,2.82-.93,4.68-1.2a8.68,8.68,0,0,0,4.86-1.95h0a8.68,8.68,0,0,0,4.86,1.95c1.86.27,3.58.13,4.68,1.2A7.55,7.55,0,0,1,37,28.06Z"/></svg>