<svg xmlns="http://www.w3.org/2000/svg" viewBox="0 0 57.68 68.64" fill="#826550"><title>beard-woodcutter</title><path d="M51.6,22.2c.12-1.7.47-3.51.72-5.4C53,11.37,53.92,5.13,52.2,0H52C50.64,3.74,50.7,8.35,49.8,12.36a19.62,19.62,0,0,1-3.24,7.56c-.53.69-1.06,1.55-1.92,1.8C44,17.8,40.36,16.78,37,15.36c-2.13-.89-4-2-6.12-2.16a11.27,11.27,0,0,0-2,.23,11.27,11.27,0,0,0-2-.23c-2.15.15-4,1.27-6.12,2.16-3.39,1.42-7,2.44-7.68,6.36-.86-.25-1.39-1.11-1.92-1.8a19.93,19.93,0,0,1-3.24-7.56C7,8.35,7.05,3.74,5.72,0H5.48c-1.72,5.13-.82,11.37-.12,16.8.25,1.89.6,3.7.72,5.4.79,11.05-6.95,23.12-6,28.92.93,7.53,8.4,9.4,14.16,12.36,4.35,2.24,8.31,5,13.32,5.16h2.56c5-.21,9-2.93,13.32-5.16,5.76-3,13.23-4.83,14.16-12.36C58.55,45.32,50.81,33.25,51.6,22.2ZM28.84,26h0a36.55,36.55,0,0,1-7.16-.51c.66-2.05,4-1.56,7.08-1.56h.16c3,0,6.42-.49,7.08,1.56A36.5,36.5,0,0,1,28.84,26Z"/></svg>