<svg xmlns="http://www.w3.org/2000/svg" viewBox="0 0 94.94 94.16" fill="#826550"><path d="M90.28,28.39a47.39,47.39,0,0,0-8.5-13.1q-1,1.89-2,3.78a42.82,42.82,0,0,1,6.42,10C87.56,28.84,88.92,28.62,90.28,28.39Z"  fill-rule="evenodd"/><path d="M90,43.56c.09,1.17.15,2.34.15,3.52A43.07,43.07,0,0,1,47.08,90.16q-1.17,0-2.34-.06A7.61,7.61,0,0,1,45,91.94a6.46,6.46,0,0,1-.41,2.15c.84,0,1.68.07,2.53.07A47.13,47.13,0,0,0,94.16,47.08a48.16,48.16,0,0,0-.41-6.16A37.6,37.6,0,0,1,90,43.56Z"  fill-rule="evenodd"/><path d="M4,47.08A43.08,43.08,0,0,1,68.65,9.79c1.08-.86,2.21-1.73,3.36-2.62A47.07,47.07,0,1,0,29.66,90.81a18.38,18.38,0,0,1-.57-4.59A43.06,43.06,0,0,1,4,47.08Z"  fill-rule="evenodd"/><path d="M38.77,84.91c7.74-2.73,16.31-9.67,14.54-19.83-.9-5.15-4.48-5-7.27-9.25,14.44-12,24.21-28.66,33-46.26h-2c-7.45,5.66-21.91,17-28.42,26.43-2.6,3.78-4.59,9.32-7.27,13.88-4.54,7.75-15.12,21.23-6.61,31.06-1.37,4.62-1.2,12.39,4,12.56C42,91.77,37.38,88.89,38.77,84.91Zm8.31-38.83a2.59,2.59,0,1,1-2.58,2.58A2.59,2.59,0,0,1,47.08,46.08ZM36.79,75c-1.86-9,7-16.95,11.89-9.25C48.94,73.16,42.5,81.51,36.79,75Z"  fill-rule="evenodd"/><path d="M56,51.2c14-5.2,30.58-7.75,39-18.5-9.41,1.38-18.12,3.47-27.75,4.62C65.05,43.56,60.16,47,56,51.2Z"  fill-rule="evenodd"/><path d="M12.33,40C8.11,52.22,20.76,56,34.14,53.85c3.79-4.82,5.85-10,2-15.87C31.23,30.52,15.22,31.61,12.33,40Zm5.29,7.27C12.5,36.4,30.51,36.17,32.16,42,34.34,49.58,23.06,50,17.62,47.24Z"  fill-rule="evenodd"/></svg>