<svg xmlns="http://www.w3.org/2000/svg" viewBox="0 0 369.46 100.88"><title>logo-tablet</title><path d="M119.85,11.43C127,9,127.59,0,120.5,0c-1.94,0-4.27,1.37-5.88,4.17L105,20.73a13.15,13.15,0,0,1-1.37,2c-2.46-3.38-1.74-8.45,1.71-10.67L104,10.27c-7.46,4.75-5.27,18.47,7.18,18.47C121.77,28.74,126.7,16,119.85,11.43ZM111.06,26a10.26,10.26,0,0,1-5.13-1.23,19.44,19.44,0,0,0,1.78-2.53l6-10.37,1,.1C123,13.72,119.68,26,111.06,26Zm3.83-16.21,2.88-4.93c2.6-4.48,5.92-1.85,4.14,1.5C120.54,8.93,118.52,9.72,114.89,9.79Z" fill="#fff"/><path d="M259.21,19l-.24.28a16.83,16.83,0,0,1-6.5,5c.58-.92,1-1.91,1.47-2.67l3.93-6.74c3.32-5.64-2.05-7.52-5.68-4.27l.72-1.23h-3.56L243.79,19h0l-.24.27a7.68,7.68,0,0,1-5.37,2.63l3.35-5.78c2.15-3.73.17-7.25-3.18-7.25-2.74,0-4.86,1.09-6.91,4.65l-1.75,3.05L228.23,19l-.19.22c-2.57,3-5.06,5.34-6.64,5.34-.79,0-1.23-.55-.41-1.95l5.13-9c1.54-2.7.07-4.65-1.91-4.65-1.54,0-3.19.85-5,2.7l5.68-9.89h-3.56L211.44,19l-.2.23A22.08,22.08,0,0,1,207,23.1c1.13-3.39.9-8.59,3.08-13.14l-2.67-1.44c-1.47,2-4.68,6.67-7.9,10.44h0l-.24.27c-2.56,3-5.06,5.34-6.63,5.34-.79,0-1.24-.55-.42-1.95l3.56-6.23c1.23-2.16.65-3.42-.51-4.82l-2-2.4a1.38,1.38,0,0,1,.2-2l-1.85-2c-2,1.81-2.19,3.83-.92,5.47L191,11c-1.58,2.23-3.7,5.24-6,8l-.24.27c-2.57,3-5.85,5.34-8.35,5.34-2.19,0-3.49-1.37-1.85-4.24l.34-.62c2.3,1,6.61.51,9.28-4.11l.51-.89c1.91-3.28.07-5.74-2.84-5.74a7.52,7.52,0,0,0-6.67,4.1L171.7,19l-.21.24a7.63,7.63,0,0,1-5.38,2.64l3.36-5.79A8.63,8.63,0,0,0,170.8,12a3,3,0,0,0-3.21-3.18,4.13,4.13,0,0,0-2.33.79l4.52-7.84h-3.63L156.17,19l-.18.21c-2.57,3-5.07,5.34-6.64,5.34-.79,0-1.23-.55-.41-1.95l3.56-6.23c1.23-2.15.65-3.42-.52-4.82l-2-2.4a1.39,1.39,0,0,1,.21-2l-1.85-2c-2,1.81-2.19,3.83-.93,5.48l.31.41c-1.57,2.22-3.69,5.23-6,8l-.24.27c-2.56,3-5.06,5.34-6.63,5.34-.79,0-1.24-.55-.42-1.95l5.75-10.06h-2A3.69,3.69,0,0,0,134.43,9c-1.91,0-4.58,1.5-6.09,4.1l-5,8.62c-1.51,2.64-.44,5.07,2.43,5.07,1.43,0,3.21-.93,4.93-2.33.17,1.37,1.26,2.33,3.08,2.33,2.94,0,6.32-3.15,9.27-6.57h0c1.71-2,3-3.76,5.88-7.63l.48.58a1.76,1.76,0,0,1,.21,2l-3.77,6.53c-1.5,2.64-.44,5.07,2.43,5.07,2.06,0,4.34-1.55,6.54-3.65v0c0,2.43,1.81,3.8,4.1,3.8A7.89,7.89,0,0,0,165,23.61a6.78,6.78,0,0,0,.78,0,10.43,10.43,0,0,0,4.73-1.4c-.19,2.57,1.68,4.52,4.82,4.52,4,0,8-3.15,11-6.57,1.71-2,3-3.76,5.89-7.63l.48.58a1.76,1.76,0,0,1,.2,2l-3.76,6.54c-1.51,2.63-.45,5.06,2.43,5.06s6.33-3.15,9.27-6.57h0c2-2.32,3.8-4.82,5.06-6.5-1.4,3.7-.65,10.33-4,10.33a2,2,0,0,1-1.67-1.3l-2.23,1.17a3.88,3.88,0,0,0,3.9,2.87,8.24,8.24,0,0,0,1-.07s.07,0,.11,0a12.63,12.63,0,0,0,5.46-2.36l-1.22,2.12h3.59L216.17,17c5.47-6.87,7.9-6,6.36-3.35l-4.62,8c-1.5,2.63-.44,5.06,2.43,5.06,2.07,0,4.36-1.55,6.55-3.66,0,4.53,6.3,5.42,10.15.55h.79a10,10,0,0,0,3.81-.94L235.16,34h3.59l10.64-18.51c4-5.41,6.47-3.42,5.54-1.82l-5.37,9.31c-.58,1-1.91,1.34-2.56,0l-2,1a3.88,3.88,0,0,0,3.9,2.87h.2c5.17-.1,8.56-3.18,11.46-6.57A2.28,2.28,0,0,0,259.21,19Zm-81-5c2.05-3.52,5.68-2.94,3.56.75l-.52.89c-1.71,2.91-4,2.84-5.33,2.36Zm-45.61,5.61c-2.15,3.39-4.27,5-5.74,5-.79,0-1.24-.54-.42-1.94l5-8.66c1.91-3.32,5.71-2.46,4,.75Zm26.79,4.86a1.33,1.33,0,0,1-1.44-1.37,4,4,0,0,1,.62-1.85L159.82,19a5.23,5.23,0,0,0,2.26,3.7A3.36,3.36,0,0,1,159.37,24.43ZM163.1,21a3.85,3.85,0,0,1-1.51-3.21c0-2.54,2.47-6.68,4.49-6.68a1.36,1.36,0,0,1,1.33,1.54,4.34,4.34,0,0,1-.68,2.13Zm73.08-1.78H236a2.11,2.11,0,0,0-2.09,2.12,2.37,2.37,0,0,0,.34,1.2l0,.07c-1.68,2.87-5.75,2.33-3.63-1.37l2.71-4.69,1.71-2.9c2.49-4.25,5.92-2.57,3.76,1.13Z" fill="#fff"/><rect x="1.67" y="69.23" width="8.08" height="8.08" transform="translate(-50.13 25.49) rotate(-44.99)" fill="#fff"/><rect x="353.66" y="69.22" width="8.08" height="8.08" transform="translate(52.93 274.34) rotate(-44.99)" fill="#fff"/><polygon points="46.8 73.48 48.88 73.48 48.88 65.16 52.15 65.16 52.15 63.07 46.8 63.07 46.8 73.48" fill="#636466"/><path d="M61.69,75V62.32a4.58,4.58,0,0,0-2.57-4.07,4.49,4.49,0,0,1,.48,2V72.93a4.46,4.46,0,0,1-1.66,3.51,5.15,5.15,0,0,1,1.66,3.69V94.24a4.62,4.62,0,0,1-4.55,4.55H41.49v2.09H57.13a4.64,4.64,0,0,0,4.56-4.56V82.21A5.21,5.21,0,0,0,60,78.52,4.5,4.5,0,0,0,61.69,75Z" fill="#636466"/><polygon points="46.8 91.34 48.88 91.34 48.88 82.95 52.15 82.95 52.15 80.87 46.8 80.87 46.8 91.34" fill="#636466"/><polygon points="79.81 91.34 81.89 91.34 81.89 65.16 85.16 65.16 85.16 63.07 79.81 63.07 79.81 91.34" fill="#636466"/><path d="M92.14,58.25a4.6,4.6,0,0,1,.48,2v34a4.63,4.63,0,0,1-4.56,4.56H77a4.42,4.42,0,0,1-2-.48,4.54,4.54,0,0,0,4.07,2.56H90.14a4.62,4.62,0,0,0,4.56-4.55v-34A4.59,4.59,0,0,0,92.14,58.25Z" fill="#636466"/><polygon points="112.82 73.48 114.9 73.48 114.9 65.16 118.18 65.16 118.18 63.07 112.82 63.07 112.82 73.48" fill="#636466"/><path d="M125.06,82.52a4.47,4.47,0,0,0,2.59-4.06V62.32a4.54,4.54,0,0,0-2.57-4.09,4.48,4.48,0,0,1,.48,2V76.37A4.47,4.47,0,0,1,123,80.44l3.08,18.35H120.4l.35,2.08h7.39Z" fill="#636466"/><polygon points="115.65 80.87 112.82 80.87 112.82 98.79 107.51 98.79 107.51 100.88 114.9 100.88 114.9 82.95 116 82.95 115.65 80.87" fill="#636466"/><polygon points="144.84 91.34 146.93 91.34 146.93 65.16 150.2 65.16 150.2 63.07 144.84 63.07 144.84 91.34" fill="#636466"/><path d="M157.17,58.25a4.46,4.46,0,0,1,.48,2v34a4.62,4.62,0,0,1-4.55,4.56H142a4.38,4.38,0,0,1-2-.48,4.54,4.54,0,0,0,4.06,2.56h11.09a4.63,4.63,0,0,0,4.56-4.55v-34A4.58,4.58,0,0,0,157.17,58.25Z" fill="#636466"/><polygon points="177.85 91.34 179.94 91.34 179.94 65.16 183.21 65.16 183.21 63.07 177.85 63.07 177.85 91.34" fill="#636466"/><path d="M190.18,58.25a4.46,4.46,0,0,1,.48,2v34a4.62,4.62,0,0,1-4.55,4.56H172.55v2.08h15.64a4.63,4.63,0,0,0,4.56-4.55v-34A4.58,4.58,0,0,0,190.18,58.25Z" fill="#636466"/><polygon points="211.24 57.77 211.24 98.79 205.93 98.79 205.93 100.88 213.32 100.88 213.32 57.77 211.24 57.77" fill="#636466"/><polygon points="244.12 57.77 244.12 98.79 238.22 98.79 238.81 100.88 246.21 100.88 246.21 57.77 244.12 57.77" fill="#636466"/><polygon points="231.31 79.95 231.31 98.79 226.01 98.79 226.01 100.88 233.4 100.88 233.4 87.19 231.31 79.95" fill="#636466"/><path d="M263.57,83h6.11V80.87h-8.19a4.5,4.5,0,0,1-2-.48A4.53,4.53,0,0,0,263.57,83Z" fill="#636466"/><polygon points="266.41 85.72 264.32 86.21 264.32 91.34 266.41 91.34 266.41 85.72" fill="#636466"/><path d="M276.65,58.25a4.46,4.46,0,0,1,.48,2V69l-5.37,1.25v2.56l7.45-1.72V62.32A4.55,4.55,0,0,0,276.65,58.25Z" fill="#636466"/><path d="M276.65,76.05a4.43,4.43,0,0,1,.48,2V94.23a4.62,4.62,0,0,1-4.55,4.56H261.49a4.46,4.46,0,0,1-2-.48,4.57,4.57,0,0,0,4.07,2.56h11.09a4.63,4.63,0,0,0,4.56-4.55V80.12A4.58,4.58,0,0,0,276.65,76.05Z" fill="#636466"/><polygon points="264.32 63.07 264.32 73.48 266.41 73.48 266.41 65.16 269.68 65.16 269.68 63.07 264.32 63.07" fill="#636466"/><polygon points="298.01 80.87 297.33 80.87 297.33 98.79 292.03 98.79 292.03 100.88 299.42 100.88 299.42 85.35 298.01 80.87" fill="#636466"/><polygon points="313.15 57.77 310.4 57.77 304.17 77.18 311.07 98.79 305.06 98.79 305.64 100.63 305.7 100.88 313.15 100.88 306.25 79.26 313.15 57.77" fill="#636466"/><polygon points="330.53 57.77 330.53 98.79 325.23 98.79 325.23 100.88 332.61 100.88 332.61 57.77 330.53 57.77" fill="#636466"/><rect x="361.52" y="79.65" width="8.08" height="2.95" transform="translate(49.73 282.28) rotate(-45.01)" fill="#636466"/><rect x="9.53" y="79.66" width="8.08" height="2.95" transform="translate(-53.4 33.36) rotate(-45)" fill="#636466"/><path d="M55.65,69A4.47,4.47,0,0,1,54,72.48a5.16,5.16,0,0,1,1.67,3.69V90.28a4.63,4.63,0,0,1-4.56,4.55H35.45V51.72H51.09a4.6,4.6,0,0,1,4.56,4.56V69Zm-7.46-9.86H42.84V69.52h5.35Zm0,17.8H42.84V87.38h5.35Z" fill="#fff"/><path d="M84.1,51.72a4.6,4.6,0,0,1,4.56,4.56v34a4.63,4.63,0,0,1-4.56,4.55H73a4.58,4.58,0,0,1-4.56-4.55v-34A4.55,4.55,0,0,1,73,51.72Zm-2.89,7.39H75.85V87.38h5.36Z" fill="#fff"/><path d="M114.71,94.83l-3-17.92h-2.83V94.83h-7.39V51.72h15.64a4.55,4.55,0,0,1,4.5,4.56V72.42A4.47,4.47,0,0,1,119,76.48l3.08,18.35Zm-.49-35.72h-5.36V69.52h5.36Z" fill="#fff"/><path d="M149.14,51.72a4.6,4.6,0,0,1,4.56,4.56v34a4.63,4.63,0,0,1-4.56,4.55H138.05a4.58,4.58,0,0,1-4.55-4.55v-34a4.55,4.55,0,0,1,4.55-4.56Zm-2.9,7.39h-5.35V87.38h5.35Z" fill="#fff"/><path d="M182.15,51.72a4.6,4.6,0,0,1,4.56,4.56v34a4.63,4.63,0,0,1-4.56,4.55H166.51V51.72Zm-2.9,7.39H173.9V87.38h5.35Z" fill="#fff"/><path d="M199.89,51.72h7.39V94.83h-7.39Z" fill="#fff"/><path d="M240.16,51.72V94.83h-7.39L227.35,76V94.83H220V51.72h7.33l5.42,17.68V51.72Z" fill="#fff"/><path d="M268.62,69.52a4.58,4.58,0,0,1,4.55,4.56v16.2a4.62,4.62,0,0,1-4.55,4.55H257.53A4.59,4.59,0,0,1,253,90.28V81.41l7.39-1.73v7.7h5.36V76.91h-8.19A4.55,4.55,0,0,1,253,72.35V56.28a4.56,4.56,0,0,1,4.56-4.56h11.09a4.59,4.59,0,0,1,4.55,4.56V65l-7.45,1.72V59.11h-5.35V69.52Z" fill="#fff"/><path d="M300.21,73.22l6.9,21.61h-7.45l-.06-.24-5.55-17.68h-.68V94.83H286V51.72h7.38v17.8h.56l5.67-17.8h7.51Z" fill="#fff"/><path d="M319.18,51.72h7.39V94.83h-7.39Z" fill="#fff"/></svg>