<?xml version="1.0" encoding="utf-8"?>
<!-- Generator: Adobe Illustrator 23.0.1, SVG Export Plug-In . SVG Version: 6.00 Build 0)  -->
<svg version="1.1" id="Layer_2" xmlns="http://www.w3.org/2000/svg" xmlns:xlink="http://www.w3.org/1999/xlink" x="0px" y="0px"
	 viewBox="0 0 25.9 25.9" enable-background="new 0 0 25.9 25.9" xml:space="preserve">
<g>
	<g>
		<g>
			<path fill="#FFFFFF" d="M0.4,24.2c-0.4,0.4-0.5,1.1-0.1,1.5C0.6,26,1.3,26,1.7,25.6L25.6,1.7C26,1.3,26,0.6,25.7,0.3
				s-1.1-0.3-1.5,0.1L0.4,24.2z"/>
		</g>
		<g>
			<path fill="#FFFFFF" d="M0.3,0.3c-0.4,0.4-0.3,1.1,0.1,1.5l23.8,23.8c0.4,0.4,1.1,0.5,1.5,0.1c0.4-0.4,0.3-1.1-0.1-1.5L1.7,0.4
				C1.3-0.1,0.6-0.1,0.3,0.3z"/>
		</g>
	</g>
</g>
</svg>
